<?xml version="1.0" encoding="utf-8"?>
<!-- Generator: Adobe Illustrator 24.0.2, SVG Export Plug-In . SVG Version: 6.00 Build 0)  -->
<svg version="1.1" id="Layer_1" xmlns="http://www.w3.org/2000/svg" xmlns:xlink="http://www.w3.org/1999/xlink" x="0px" y="0px"
	 viewBox="0 0 512 512" style="enable-background:new 0 0 512 512;" xml:space="preserve">
<style type="text/css">
	.st0{fill:#EFEAE6;}
	.st1{fill:#FFD38D;}
	.st2{fill:#6D4135;}
</style>
<title>map-filled</title>
<polygon class="st0" points="197,436.6 79,403.8 79,141.1 197,173.9 "/>
<polygon class="st0" points="315,403.8 197,436.6 197,173.9 315,141.1 "/>
<polygon class="st0" points="433.1,436.6 315,403.8 315,141.1 433.1,173.9 "/>
<path class="st1" d="M399.3,157.5c0,49.3-84.3,114.9-84.3,114.9s-84.3-65.7-84.3-114.9c0-44.5,37.8-82.1,84.3-82.1
	S399.3,113,399.3,157.5z"/>
<path class="st2" d="M437.7,158.1l-21.6-6C413.2,100.3,369,59,315,59s-98.1,41.3-101,93.1l-17,4.7L83.6,125.3
	c-9-2.5-18.3,2.5-20.8,11.3c-0.4,1.5-0.7,3-0.7,4.5v262.7c0,7.3,5,13.8,12.2,15.8l118,32.8l0.3,0.1l0.5,0.1l0.8,0.2l0.5,0.1
	c0.3,0,0.6,0.1,0.8,0.1l0.4,0c0.4,0,0.8,0,1.3,0l0,0c0.4,0,0.8,0,1.3,0l0.4,0c0.3,0,0.6-0.1,0.8-0.1l0.5-0.1l0.8-0.1l0.5-0.1
	l0.3-0.1l113.4-31.6l113.4,31.6c9,2.5,18.3-2.6,20.9-11.3c0.4-1.5,0.6-3,0.6-4.5V173.9C450,166.6,445,160.1,437.7,158.1z M315,91.8
	c36.6,0,67.4,30.1,67.4,65.7c0,26.7-37.9,68.1-67.4,93.5c-29.6-25.4-67.4-66.7-67.4-93.5C247.6,121.9,278.5,91.8,315,91.8z
	 M95.8,162.8l84.3,23.5v228.6l-84.3-23.5V162.8z M213.8,186.3l5.7-1.6c15.9,40.8,61,80.8,78.6,95.4v111.2l-84.3,23.5L213.8,186.3z
	 M416.2,414.9l-84.3-23.5V280.1c17.6-14.6,62.7-54.6,78.6-95.4l5.7,1.6L416.2,414.9z"/>
<ellipse class="st2" cx="315" cy="157.5" rx="16.9" ry="16.4"/>
</svg>
