<?xml version="1.0" encoding="utf-8"?>
<!-- Generator: Adobe Illustrator 25.4.1, SVG Export Plug-In . SVG Version: 6.00 Build 0)  -->
<svg version="1.1" id="emoji" xmlns="http://www.w3.org/2000/svg" xmlns:xlink="http://www.w3.org/1999/xlink" x="0px" y="0px"
	 viewBox="0 0 72 72" style="enable-background:new 0 0 72 72;" xml:space="preserve">
<style type="text/css">
	.st0{fill:#5C9E31;}
	.st1{fill:#B1CC33;}
</style>
<g id="color">
	<g>
		<path class="st0" d="M58,46h3c0,0-5,10-23,9c0,0-7,0-15-8c0,0,1,7-4,5s-6-5-4-12l25,4"/>
	</g>
	<g>
		<polygon class="st1" points="39,50 56,35 54,46 		"/>
	</g>
</g>
<g id="hair">
</g>
<g id="skin">
</g>
<g id="skin-shadow">
</g>
<g id="line">
	<g>
		<path d="M14,41c-0.2,0-0.4-0.1-0.6-0.2l-6-4c-0.5-0.3-0.6-0.9-0.3-1.4s0.9-0.6,1.4-0.3l2.9,1.9l-1.3-2.6c-0.2-0.5,0-1.1,0.4-1.3
			c0.5-0.2,1.1,0,1.3,0.4l3,6c0.2,0.4,0.1,0.9-0.2,1.2C14.5,40.9,14.2,41,14,41z"/>
	</g>
	<g>
		<path d="M24,60h-3c-0.6,0-1-0.4-1-1s0.4-1,1-1h2.3l2.9-7.1c0.2-0.5,0.8-0.8,1.3-0.6c0.5,0.2,0.8,0.8,0.6,1.3l-3.1,7.7
			C24.8,59.8,24.4,60,24,60z"/>
	</g>
	<g>
		<path d="M35,60h-4c-0.3,0-0.6-0.2-0.8-0.4c-0.2-0.3-0.2-0.6-0.1-0.9l1.9-4.9c0.2-0.5,0.8-0.8,1.3-0.6c0.5,0.2,0.8,0.8,0.6,1.3
			L32.4,58H35c0.6,0,1,0.4,1,1S35.6,60,35,60z"/>
	</g>
	<g>
		<path d="M40.5,56.1c-0.8,0-1.7,0-2.6-0.1c-0.2,0-6.5-0.1-13.9-6.7c-0.1,1.2-0.5,2.6-1.5,3.4c-1,0.8-2.3,0.8-3.9,0.2
			c-5.5-2.2-6.7-5.7-4.6-13.2c0.1-0.5,0.6-0.8,1.1-0.7l25,4c0.5,0.1,0.9,0.6,0.8,1.1c-0.1,0.5-0.6,0.9-1.1,0.8l-24.1-3.9
			c-1.7,6.5-0.1,8.4,3.6,9.9c0.9,0.4,1.5,0.4,1.9,0.1c0.9-0.7,0.9-3,0.7-4c-0.1-0.4,0.2-0.8,0.5-1c0.4-0.2,0.8-0.1,1.2,0.2
			C31.3,53.9,37.9,54,38,54c13.1,0.7,19-4.4,21.1-7H58c-0.6,0-1-0.4-1-1s0.4-1,1-1h3c0.3,0,0.7,0.2,0.9,0.5s0.2,0.7,0,1
			C61.7,46.9,56.9,56.1,40.5,56.1z"/>
	</g>
	<g>
		<path d="M56,60h-4c-0.3,0-0.6-0.1-0.8-0.4C51,59.4,51,59.1,51,58.8l4.4-22.2L39.6,49.8c-0.4,0.4-1.1,0.3-1.4-0.1
			c-0.4-0.4-0.3-1.1,0.1-1.4l18-15c0.3-0.3,0.8-0.3,1.2-0.1c0.4,0.2,0.6,0.6,0.5,1.1L53.2,58H56c0.6,0,1,0.4,1,1S56.6,60,56,60z"/>
	</g>
</g>
</svg>
