<?xml version="1.0" encoding="UTF-8" standalone="no"?>
<svg
   xmlns:dc="http://purl.org/dc/elements/1.1/"
   xmlns:cc="http://creativecommons.org/ns#"
   xmlns:rdf="http://www.w3.org/1999/02/22-rdf-syntax-ns#"
   xmlns:svg="http://www.w3.org/2000/svg"
   xmlns="http://www.w3.org/2000/svg"
   xmlns:sodipodi="http://sodipodi.sourceforge.net/DTD/sodipodi-0.dtd"
   xmlns:inkscape="http://www.inkscape.org/namespaces/inkscape"
   viewBox="0 -256 2000 2000"
   id="svg3013"
   version="1.1"
   inkscape:version="0.48.3.1 r9886"
   width="100%"
   height="100%"
   sodipodi:docname="desktop_font_awesome.svg">
  <metadata
     id="metadata3023">
    <rdf:RDF>
      <cc:Work
         rdf:about="">
        <dc:format>image/svg+xml</dc:format>
        <dc:type
           rdf:resource="http://purl.org/dc/dcmitype/StillImage" />
      </cc:Work>
    </rdf:RDF>
  </metadata>
  <defs
     id="defs3021" />
  <sodipodi:namedview
     pagecolor="#ffffff"
     bordercolor="#666666"
     borderopacity="1"
     objecttolerance="10"
     gridtolerance="10"
     guidetolerance="10"
     inkscape:pageopacity="0"
     inkscape:pageshadow="2"
     inkscape:window-width="640"
     inkscape:window-height="480"
     id="namedview3019"
     showgrid="false"
     inkscape:zoom="0.13169643"
     inkscape:cx="960"
     inkscape:cy="962.0834"
     inkscape:window-x="0"
     inkscape:window-y="25"
     inkscape:window-maximized="0"
     inkscape:current-layer="svg3013" />
  <g
     transform="matrix(1,0,0,-1,37.966102,1447.8644)"
     id="g3015">
    <path
       d="m 1792,544 v 832 q 0,13 -9.5,22.5 -9.5,9.5 -22.5,9.5 H 160 q -13,0 -22.5,-9.5 Q 128,1389 128,1376 V 544 q 0,-13 9.5,-22.5 Q 147,512 160,512 h 1600 q 13,0 22.5,9.5 9.5,9.5 9.5,22.5 z m 128,832 V 288 q 0,-66 -47,-113 -47,-47 -113,-47 h -544 q 0,-37 16,-77.5 16,-40.5 32,-71 16,-30.5 16,-43.5 0,-26 -19,-45 -19,-19 -45,-19 H 704 q -26,0 -45,19 -19,19 -19,45 0,14 16,44 16,30 32,70 16,40 16,78 H 160 Q 94,128 47,175 0,222 0,288 v 1088 q 0,66 47,113 47,47 113,47 h 1600 q 66,0 113,-47 47,-47 47,-113 z"
       id="path3017"
       inkscape:connector-curvature="0"
       style="fill:currentColor" />
  </g>
</svg>
