<?xml version="1.0" encoding="utf-8"?>
<!-- Generator: Adobe Illustrator 25.4.1, SVG Export Plug-In . SVG Version: 6.00 Build 0)  -->
<svg version="1.1" id="Слой_1" xmlns="http://www.w3.org/2000/svg" xmlns:xlink="http://www.w3.org/1999/xlink" x="0px" y="0px"
	 viewBox="0 0 24 24" style="enable-background:new 0 0 24 24;" xml:space="preserve">
<style type="text/css">
	.st0{fill:#130F26;}
</style>
<g id="Iconly_x2F_Curved_x2F_Filter">
	<g id="Filter">
		<g id="Stroke_1">
			<path class="st0" d="M11.1,18.6H4.7c-0.4,0-0.8-0.3-0.8-0.8s0.3-0.8,0.8-0.8h6.5c0.4,0,0.8,0.3,0.8,0.8S11.6,18.6,11.1,18.6z"/>
		</g>
		<g id="Stroke_3">
			<path class="st0" d="M17.9,21.4c-2.5,0-3.5-1-3.5-3.5s1-3.5,3.5-3.5s3.5,1,3.5,3.5S20.4,21.4,17.9,21.4z M17.9,15.9
				c-1.6,0-2,0.4-2,2s0.4,2,2,2s2-0.4,2-2S19.5,15.9,17.9,15.9z"/>
		</g>
		<g id="Stroke_5">
			<path class="st0" d="M20.6,8.1h-6.5c-0.4,0-0.8-0.3-0.8-0.8s0.3-0.8,0.8-0.8h6.5c0.4,0,0.8,0.3,0.8,0.8S21.1,8.1,20.6,8.1z"/>
		</g>
		<g id="Stroke_7">
			<path class="st0" d="M7.4,10.9c-2.5,0-3.5-1-3.5-3.5c0-2.5,1-3.5,3.5-3.5c2.5,0,3.5,1,3.5,3.5C10.9,9.9,9.9,10.9,7.4,10.9z
				 M7.4,5.4c-1.6,0-2,0.4-2,2c0,1.6,0.4,2,2,2c1.6,0,2-0.4,2-2C9.4,5.8,9,5.4,7.4,5.4z"/>
		</g>
	</g>
</g>
</svg>
