<?xml version="1.0" encoding="utf-8"?>
<!-- Generator: Adobe Illustrator 24.0.2, SVG Export Plug-In . SVG Version: 6.00 Build 0)  -->
<svg version="1.1" id="Слой_1" xmlns="http://www.w3.org/2000/svg" xmlns:xlink="http://www.w3.org/1999/xlink" x="0px" y="0px"
	 viewBox="0 0 400 400" style="enable-background:new 0 0 400 400;" xml:space="preserve">
<desc>Created with Fabric.js 3.6.2</desc>
<g id="Layer_1" transform="matrix(0.92 0 0 0.92 200 200)">
	<path d="M162.9,110.4c-3.4,0.2-6.5,0.2-9.9,0.2c-54.4,0-105.6-21.1-144.1-59.6S-50.8-38.8-50.8-93.2c0-31,6.9-60.9,19.8-88
		c5.8-12,12.7-23.4,20.8-34c-14.2,1.5-27.9,4.5-41.1,8.6C-138.8-179-202.2-97.3-202.2-0.7c0,119.3,96.6,215.9,215.9,215.9
		c66,0,124.9-29.5,164.5-76.1c9-10.7,17.2-22.2,23.9-34.6C189.5,107.8,176.4,109.8,162.9,110.4z"/>
</g>
</svg>
