<?xml version="1.0" encoding="utf-8"?>
<!-- Generator: Adobe Illustrator 24.0.2, SVG Export Plug-In . SVG Version: 6.00 Build 0)  -->
<svg version="1.1" id="Capa_1" xmlns="http://www.w3.org/2000/svg" xmlns:xlink="http://www.w3.org/1999/xlink" x="0px" y="0px"
	 viewBox="0 0 156.4 156.4" style="enable-background:new 0 0 156.4 156.4;" xml:space="preserve">
<g>
	<path d="M140.8,92.3l15-12.8l0.4-0.3l-0.4-0.3l-14.6-12.5c-2.1-2.3-2.6-4.2-1.8-7.1l6.5-18.6l0.2-0.5l-0.5-0.1l-19-3.6
		c-2.9-0.7-4.4-2.4-5.1-5.2l-3.7-19.4l-0.1-0.5l-0.5,0.2l-18.2,6.4c-2.9,0.6-4.8,0.6-7.4-2.1L78.5,0.4L78.2,0l-0.3,0.4L64.6,15.8
		c-1.7,1.8-3.4,2.7-6,1.6l-19.2-6.7L39,10.5L38.9,11l-3.8,20c-0.3,2.3-0.7,3.6-4.2,4.1l-19.4,3.7l-0.5,0.1l0.2,0.5l6.4,18.2
		c1.6,4.1,0.7,4.7-2,7l-15,12.9l-0.4,0.3l0.4,0.3l14.6,12.5c1.9,1.8,2.8,3.5,1.8,7.2l-6.5,18.6l-0.2,0.5l0.5,0.1l18.9,3.6
		c3.4,0.7,4.5,2.5,5.1,5.3l3.6,19.4l0.1,0.5l0.5-0.2l18.1-6.4c3.1-0.8,5.1-0.4,7.1,2L77.1,156l0.3,0.4l0.3-0.4l12.5-14.6
		c1.8-1.8,3.8-2.9,7.2-1.8l18.5,6.5l0.5,0.2l0.1-0.5l3.6-18.9c0.7-3.2,1.9-4.2,5.3-5.1l19.4-3.6l0.5-0.1l-0.2-0.5l-6.4-18.1
		C137.8,96.3,138.1,94.5,140.8,92.3z M78.2,131.9c-29.5,0-53.5-23.9-53.5-53.5C24.7,48.9,48.7,25,78.2,25c0.8,0,1.6,0,2.5,0.1l0,0
		c28.4,1.3,51,24.7,51,53.4C131.7,108,107.7,131.9,78.2,131.9z"/>
	<path d="M80.3,31.9v93c-0.7,0-1.4,0.1-2.1,0.1c25.7,0,46.6-20.8,46.6-46.6C124.8,53.5,105.1,33.1,80.3,31.9z"/>
	<path d="M80.3,31.9L80.3,31.9c-0.7,0-1.4-0.1-2.1-0.1c-25.7,0-46.6,20.8-46.6,46.6c0,25.7,20.8,46.6,46.6,46.6c0.7,0,1.4,0,2.1-0.1
		V31.9z"/>
</g>
</svg>
