<?xml version="1.0" encoding="utf-8"?>
<!-- Generator: Adobe Illustrator 24.0.2, SVG Export Plug-In . SVG Version: 6.00 Build 0)  -->
<svg version="1.1" id="Layer_1" xmlns="http://www.w3.org/2000/svg" xmlns:xlink="http://www.w3.org/1999/xlink" x="0px" y="0px"
	 viewBox="0 0 265.6 265.6" style="enable-background:new 0 0 265.6 265.6;" xml:space="preserve">
<style type="text/css">
	.st0{fill:#4EFFBB;}
	.st1{fill:#302C58;}
	.st2{fill:#222051;}
</style>
<g>
	<g>
		<path class="st0" d="M177.4,160.7c19.7-12.3,31.7-34.1,31.6-57.7c-0.2-37.2-30.2-67.2-66.9-67.1c-36.7,0.2-66.4,30.5-66.3,67.7
			c0.1,22.9,11.9,44.3,30.8,56.6l0.1,22.9c0,0.2,0,0.3,0.1,0.5c-2.4,2.5-4,5.9-3.9,9.7l0,0.5c0,2.9,0.9,5.6,2.5,7.7
			c-1.5,2.2-2.4,4.9-2.4,7.8l0,0.5c0,7.5,6.1,13.5,13.5,13.5l7.6,0l0,0.5c0,8.3,6.7,15,15,15l7.6,0c8.2,0,14.8-6.8,14.8-15.1l0-0.5
			l6.1,0c7.4,0,13.4-6.1,13.3-13.6l0-0.5c0-2.9-0.9-5.6-2.5-7.7c1.5-2.2,2.4-4.9,2.4-7.8l0-0.5c0-3.4-1.3-6.5-3.4-8.9
			c0.1-0.4,0.1-0.8,0.1-1.2L177.4,160.7z"/>
		<g id="XMLID_18_">
			<g>
				<path class="st1" d="M147.5,186.5l-51.1,0.2c-1.1,0-1.9-0.9-1.9-1.9l0-0.5c0-1.1,0.8-1.9,1.9-1.9l51.1-0.3
					c1.1,0,1.9,0.9,1.9,1.9l0,0.5C149.4,185.6,148.6,186.4,147.5,186.5z"/>
				<path class="st1" d="M147.6,202.4l-51.1,0.2c-1.1,0-1.9-0.9-1.9-1.9l0-0.5c0-1.1,0.8-1.9,1.9-1.9l51.1-0.3
					c1.1,0,1.9,0.9,1.9,1.9l0,0.5C149.5,201.6,148.6,202.4,147.6,202.4z"/>
				<path class="st2" d="M189.1,94.2c-0.2-37.2-30.2-67.2-66.9-67.1c-14.1,0.1-27.2,4.6-37.9,12.2c-2.8,2-3.1,6.1-0.7,8.6
					c0,0,0.1,0.1,0.1,0.1c2,2,5.1,2.3,7.4,0.6c8.8-6.2,19.6-9.9,31.1-10c30.4-0.1,55.2,24.8,55.4,55.5c0.1,20.5-10.9,39.4-28.6,49.2
					c-1.8,1-3,3-3,5.1l0.1,19.6l-16.4,0.1l-0.2-36.7l21-21.5c1.6-1.7,2.1-4.2,1.2-6.3c-0.9-2.2-3-3.6-5.3-3.6l-45.4,0.2
					c-2.3,0-4.4,1.4-5.3,3.6c-0.9,2.2-0.4,4.7,1.3,6.3l11.2,11.2c2,2,5.3,2.5,7.6,0.8c3-2.2,3.2-6.4,0.7-8.9l-1.6-1.6l17.7-0.1
					l-12.9,13.2c-1.1,1.1-1.7,2.6-1.7,4.1l0.2,39.1l-19.9,0.1L98.2,148c0-2-1-3.9-2.8-5c-13.9-8-23.6-21.6-26.9-37.1
					c-0.6-2.7-2.9-4.6-5.6-4.6l0,0c-3.7,0-6.4,3.4-5.6,7c3.7,17.6,14.2,33.2,29.4,43l0.1,22.9c0,0.2,0,0.3,0.1,0.5
					c-2.4,2.5-4,5.9-3.9,9.7l0,0.5c0,2.9,0.9,5.6,2.5,7.7c-1.5,2.2-2.4,4.9-2.4,7.8l0,0.5c0,7.5,6.1,13.5,13.5,13.5l7.6,0l0,0.5
					c0,8.3,6.7,15,15,15l7.6,0c8.2,0,14.8-6.8,14.8-15.1l0-0.5l6.1,0c7.4,0,13.4-6.1,13.3-13.6l0-0.5c0-2.9-0.9-5.6-2.5-7.7
					c1.5-2.2,2.4-4.9,2.4-7.8l0-0.5c0-3.4-1.3-6.5-3.4-8.9c0.1-0.4,0.1-0.8,0.1-1.2l-0.1-22C177.1,139.6,189.2,117.8,189.1,94.2z
					 M94.5,184.3c0-1.1,0.8-1.9,1.9-1.9l51.1-0.2c1.1,0,1.9,0.9,1.9,1.9l0,0.5c0,1.1-0.9,1.9-1.9,1.9l-51.1,0.2
					c-1.1,0-1.9-0.9-1.9-1.9L94.5,184.3z M126.7,218.1l-7.6,0c-1.9,0-3.4-1.5-3.4-3.4l0-0.5l14.4-0.1l0,0.5
					C130.1,216.5,128.5,218.1,126.7,218.1z M147.6,202.4l-51.1,0.2c-1.1,0-1.9-0.9-1.9-1.9l0-0.5c0-1.1,0.8-1.9,1.9-1.9l51.1-0.3
					c1.1,0,1.9,0.9,1.9,1.9l0,0.5C149.5,201.6,148.6,202.4,147.6,202.4z"/>
				<path class="st2" d="M62.4,91L62.4,91c2.9,0,5.3-2.1,5.7-4.9c1.3-8.6,4.5-16.5,9.1-23.4c1.5-2.3,1.3-5.3-0.6-7.2
					c0,0-0.1-0.1-0.1-0.1c-2.5-2.5-6.7-2.3-8.7,0.7c-5.7,8.3-9.6,18-11.1,28.5C56.2,88,58.9,91,62.4,91z"/>
			</g>
		</g>
	</g>
</g>
</svg>
