<?xml version="1.0" encoding="utf-8"?>
<!-- Generator: Adobe Illustrator 24.0.2, SVG Export Plug-In . SVG Version: 6.00 Build 0)  -->
<svg version="1.1" id="Слой_1" xmlns="http://www.w3.org/2000/svg" xmlns:xlink="http://www.w3.org/1999/xlink" x="0px" y="0px"
	 viewBox="0 0 77 77" style="enable-background:new 0 0 77 77;" xml:space="preserve">
<style type="text/css">
	.st0{fill:#163844;}
	.st1{fill:#27B7FF;}
</style>
<g id="headphones_blue" transform="translate(-463.143 -1766.06)">
	<g id="Group_165">
		<path id="Path_381" class="st0" d="M492,1829.3c0,2.1-1.7,3.8-3.8,3.8h-3.9c-2.1,0-3.8-1.7-3.8-3.8v-19.9c0-2.1,1.7-3.8,3.8-3.9
			h3.9c2.1,0,3.8,1.7,3.8,3.9V1829.3z"/>
	</g>
	<g id="Group_166">
		<path id="Path_382" class="st0" d="M511.4,1809.4c0-2.1,1.7-3.8,3.9-3.9h3.8c2.1,0,3.8,1.7,3.8,3.9v19.9c0,2.1-1.7,3.8-3.8,3.8
			h-3.8c-2.1,0-3.8-1.7-3.9-3.8V1809.4z"/>
	</g>
	<path id="Path_383" class="st1" d="M523.6,1809.5c-0.2,0-0.5,0.1-0.7,0.1v19.6c0.2,0,0.5,0.1,0.7,0.1c5.4-0.1,9.8-4.5,9.7-10
		C533.3,1813.8,528.9,1809.5,523.6,1809.5L523.6,1809.5z"/>
	<path id="Path_384" class="st1" d="M480.4,1809.5c-0.2,0-0.4-0.1-0.7-0.1c-5.4,0.1-9.8,4.5-9.7,10c0.1,5.3,4.4,9.7,9.7,9.7
		c0.2,0,0.5-0.1,0.7-0.1V1809.5z"/>
	<path id="Path_385" class="st0" d="M501.9,1776c-15.1,0-27.3,12.2-27.3,27.3c0,0,0,0,0,0v7.6c1.2-0.7,2.5-1.2,3.8-1.4v-6.2
		c0-13,10.5-23.5,23.4-23.5c13,0,23.5,10.5,23.5,23.4c0,0,0,0,0,0v6.3c1.4,0.2,2.7,0.8,3.8,1.6c0-3.4,0-7.7,0-7.8
		C529.2,1788.3,516.9,1776,501.9,1776z"/>
</g>
</svg>
