<?xml version="1.0" encoding="utf-8"?>
<!-- Generator: Adobe Illustrator 24.0.2, SVG Export Plug-In . SVG Version: 6.00 Build 0)  -->
<svg version="1.1" id="Layer_1" xmlns="http://www.w3.org/2000/svg" xmlns:xlink="http://www.w3.org/1999/xlink" x="0px" y="0px"
	 viewBox="0 0 512 512" style="enable-background:new 0 0 512 512;" xml:space="preserve">
<g>
	<g>
		<path d="M383.6,208.6c-12.5,0-24.3,2.9-34.8,7.9l-16.3-23.1c-0.2-2.7-1.9-5-4.3-6.1l-13.5-19.2l27.9-11.1c3.7-1.5,5.6-5.7,4.1-9.5
			c-1.5-3.7-5.7-5.5-9.5-4.1l-36.4,14.6c-2.1,0.8-3.6,2.6-4.3,4.7c-0.6,2.1-0.3,4.5,1,6.3l12.5,17.7H205.8l-12.6-25.1
			c-1.2-2.5-3.8-4-6.5-4h-29.2c-4,0-7.3,3.3-7.3,7.3s3.3,7.3,7.3,7.3h24.7l51,102h-26c-6.9-36.4-39.6-65.6-78.8-65.6
			c-44.2,0-80.2,36-80.2,80.2c0,44.2,36,80.2,80.2,80.2c44.2,0,80.2-36.4,80.2-80.2h36.4c2.5,0,4.9-1.3,6.2-3.5
			c1.3-2.2,1.4-4.8,0.3-7.1l-38.5-76.9h107.1l16.1,22.7c-19.9,14.6-32.9,38.1-32.9,64.7c0,44.2,36,80.2,80.2,80.2
			c44.2,0,80.2-36,80.2-80.2S427.8,208.6,383.6,208.6z M128.4,354.4c-36.2,0-65.6-29.4-65.6-65.6c0-36.2,29.4-65.6,65.6-65.6
			c31.2,0,57.3,21.9,63.9,51h-56.7c-4,0-7.3,3.3-7.3,7.3s3.3,7.3,7.3,7.3H194C194,325.3,164.6,354.4,128.4,354.4z M383.6,354.4
			c-36.2,0-65.6-29.4-65.6-65.6c0-21.6,10.5-40.8,26.7-52.8l40.2,57c1.4,2,3.7,3.1,6,3.1c1.5,0,2.9-0.4,4.2-1.3
			c3.3-2.3,4.1-6.9,1.8-10.2l-39.5-55.9c8-3.5,16.9-5.5,26.2-5.5c36.2,0,65.6,29.4,65.6,65.6C449.2,325,419.7,354.4,383.6,354.4z"/>
	</g>
</g>
</svg>
